<mxfile host="app.diagrams.net" agent="Mozilla/5.0 (Windows NT 10.0; Win64; x64) AppleWebKit/537.36 (KHTML, like Gecko) Chrome/134.0.0.0 Safari/537.36" version="26.0.15">
  <diagram name="Trang-1" id="blUwYWcLWPPWUYtj4FWt">
    <mxGraphModel dx="1757" dy="764" grid="0" gridSize="10" guides="1" tooltips="1" connect="1" arrows="1" fold="1" page="0" pageScale="1" pageWidth="827" pageHeight="1169" math="0" shadow="0">
      <root>
        <mxCell id="0" />
        <mxCell id="1" parent="0" />
        <mxCell id="0D9UNZA62zLQWXdKTRaE-3" value="" style="group" vertex="1" connectable="0" parent="1">
          <mxGeometry x="-183" y="17" width="157" height="70" as="geometry" />
        </mxCell>
        <mxCell id="0D9UNZA62zLQWXdKTRaE-1" value="" style="rounded=0;whiteSpace=wrap;html=1;" vertex="1" parent="0D9UNZA62zLQWXdKTRaE-3">
          <mxGeometry width="157" height="70" as="geometry" />
        </mxCell>
        <mxCell id="0D9UNZA62zLQWXdKTRaE-2" value="Client ( Postman )" style="text;html=1;align=center;verticalAlign=middle;whiteSpace=wrap;rounded=0;" vertex="1" parent="0D9UNZA62zLQWXdKTRaE-3">
          <mxGeometry x="25" y="20" width="111" height="30" as="geometry" />
        </mxCell>
        <mxCell id="0D9UNZA62zLQWXdKTRaE-5" value="" style="group" vertex="1" connectable="0" parent="1">
          <mxGeometry x="382" y="14" width="157" height="70" as="geometry" />
        </mxCell>
        <mxCell id="0D9UNZA62zLQWXdKTRaE-6" value="" style="rounded=0;whiteSpace=wrap;html=1;" vertex="1" parent="0D9UNZA62zLQWXdKTRaE-5">
          <mxGeometry width="157" height="70" as="geometry" />
        </mxCell>
        <mxCell id="0D9UNZA62zLQWXdKTRaE-7" value="Kong Gateway" style="text;html=1;align=center;verticalAlign=middle;whiteSpace=wrap;rounded=0;" vertex="1" parent="0D9UNZA62zLQWXdKTRaE-5">
          <mxGeometry x="25" y="20" width="111" height="30" as="geometry" />
        </mxCell>
        <mxCell id="0D9UNZA62zLQWXdKTRaE-8" style="edgeStyle=none;curved=1;rounded=0;orthogonalLoop=1;jettySize=auto;html=1;entryX=0;entryY=0.5;entryDx=0;entryDy=0;fontSize=12;startSize=8;endSize=8;" edge="1" parent="1" source="0D9UNZA62zLQWXdKTRaE-1" target="0D9UNZA62zLQWXdKTRaE-6">
          <mxGeometry relative="1" as="geometry" />
        </mxCell>
        <mxCell id="0D9UNZA62zLQWXdKTRaE-9" value="Gửi request GET /api /orders + [&amp;nbsp;Unauthorized: Bearer &amp;lt;JWT&amp;gt; ]" style="edgeLabel;html=1;align=center;verticalAlign=middle;resizable=0;points=[];fontSize=12;" vertex="1" connectable="0" parent="0D9UNZA62zLQWXdKTRaE-8">
          <mxGeometry x="-0.154" y="1" relative="1" as="geometry">
            <mxPoint x="28" y="1" as="offset" />
          </mxGeometry>
        </mxCell>
        <mxCell id="0D9UNZA62zLQWXdKTRaE-12" value="" style="group" vertex="1" connectable="0" parent="1">
          <mxGeometry x="869" y="13" width="171" height="70" as="geometry" />
        </mxCell>
        <mxCell id="0D9UNZA62zLQWXdKTRaE-13" value="" style="rounded=0;whiteSpace=wrap;html=1;" vertex="1" parent="0D9UNZA62zLQWXdKTRaE-12">
          <mxGeometry width="171" height="70" as="geometry" />
        </mxCell>
        <mxCell id="0D9UNZA62zLQWXdKTRaE-14" value="Flask API ( Backend )" style="text;html=1;align=center;verticalAlign=middle;whiteSpace=wrap;rounded=0;" vertex="1" parent="0D9UNZA62zLQWXdKTRaE-12">
          <mxGeometry x="27.229299363057326" y="20" width="120.89808917197452" height="30" as="geometry" />
        </mxCell>
        <mxCell id="0D9UNZA62zLQWXdKTRaE-15" value="" style="endArrow=classic;html=1;rounded=0;fontSize=12;startSize=8;endSize=8;curved=1;" edge="1" parent="1">
          <mxGeometry width="50" height="50" relative="1" as="geometry">
            <mxPoint x="463" y="190" as="sourcePoint" />
            <mxPoint x="463" y="86" as="targetPoint" />
          </mxGeometry>
        </mxCell>
        <mxCell id="0D9UNZA62zLQWXdKTRaE-16" value="Kiểm tra JWT ( plugin JWT )" style="edgeLabel;html=1;align=center;verticalAlign=middle;resizable=0;points=[];fontSize=12;" vertex="1" connectable="0" parent="0D9UNZA62zLQWXdKTRaE-15">
          <mxGeometry x="-0.0323" y="-2" relative="1" as="geometry">
            <mxPoint as="offset" />
          </mxGeometry>
        </mxCell>
        <mxCell id="0D9UNZA62zLQWXdKTRaE-17" style="edgeStyle=none;curved=1;rounded=0;orthogonalLoop=1;jettySize=auto;html=1;entryX=0;entryY=0.5;entryDx=0;entryDy=0;fontSize=12;startSize=8;endSize=8;" edge="1" parent="1" source="0D9UNZA62zLQWXdKTRaE-6" target="0D9UNZA62zLQWXdKTRaE-13">
          <mxGeometry relative="1" as="geometry" />
        </mxCell>
        <mxCell id="0D9UNZA62zLQWXdKTRaE-18" value="Trả về dữ liệu JSON" style="edgeLabel;html=1;align=center;verticalAlign=middle;resizable=0;points=[];fontSize=12;" vertex="1" connectable="0" parent="0D9UNZA62zLQWXdKTRaE-17">
          <mxGeometry x="-0.0674" y="1" relative="1" as="geometry">
            <mxPoint as="offset" />
          </mxGeometry>
        </mxCell>
      </root>
    </mxGraphModel>
  </diagram>
</mxfile>
